<mxfile host="app.diagrams.net" modified="2021-03-19T19:30:15.882Z" agent="5.0 (Windows NT 10.0; Win64; x64) AppleWebKit/537.36 (KHTML, like Gecko) Chrome/89.0.4389.90 Safari/537.36" etag="ocx3O9APcklisjq4M1Od" version="14.4.9" type="github">
  <diagram id="sRY72GDswa8_aFfnA_Qs" name="Page-1">
    <mxGraphModel dx="1422" dy="776" grid="1" gridSize="10" guides="1" tooltips="1" connect="1" arrows="1" fold="1" page="1" pageScale="1" pageWidth="827" pageHeight="1169" math="0" shadow="0">
      <root>
        <mxCell id="0" />
        <mxCell id="1" parent="0" />
        <mxCell id="hnz49Kh1lBNC97R2SsjH-1" value="aPosition" style="rounded=0;whiteSpace=wrap;html=1;" vertex="1" parent="1">
          <mxGeometry x="70" y="180" width="120" height="60" as="geometry" />
        </mxCell>
        <mxCell id="hnz49Kh1lBNC97R2SsjH-15" value="" style="edgeStyle=orthogonalEdgeStyle;rounded=0;orthogonalLoop=1;jettySize=auto;html=1;" edge="1" parent="1" source="hnz49Kh1lBNC97R2SsjH-2" target="hnz49Kh1lBNC97R2SsjH-10">
          <mxGeometry relative="1" as="geometry" />
        </mxCell>
        <mxCell id="hnz49Kh1lBNC97R2SsjH-2" value="aBall" style="rounded=0;whiteSpace=wrap;html=1;" vertex="1" parent="1">
          <mxGeometry x="70" y="290" width="120" height="60" as="geometry" />
        </mxCell>
        <mxCell id="hnz49Kh1lBNC97R2SsjH-5" value="" style="ellipse;whiteSpace=wrap;html=1;aspect=fixed;" vertex="1" parent="1">
          <mxGeometry x="310" y="26" width="144" height="144" as="geometry" />
        </mxCell>
        <mxCell id="hnz49Kh1lBNC97R2SsjH-6" value="y" style="rounded=0;whiteSpace=wrap;html=1;" vertex="1" parent="1">
          <mxGeometry x="347.5" y="110" width="69" height="30" as="geometry" />
        </mxCell>
        <mxCell id="hnz49Kh1lBNC97R2SsjH-7" value="x" style="rounded=0;whiteSpace=wrap;html=1;" vertex="1" parent="1">
          <mxGeometry x="345" y="60" width="74" height="30" as="geometry" />
        </mxCell>
        <mxCell id="hnz49Kh1lBNC97R2SsjH-8" value="5" style="ellipse;whiteSpace=wrap;html=1;aspect=fixed;" vertex="1" parent="1">
          <mxGeometry x="600" y="26" width="80" height="80" as="geometry" />
        </mxCell>
        <mxCell id="hnz49Kh1lBNC97R2SsjH-9" value="20" style="ellipse;whiteSpace=wrap;html=1;aspect=fixed;" vertex="1" parent="1">
          <mxGeometry x="600" y="130" width="80" height="80" as="geometry" />
        </mxCell>
        <mxCell id="hnz49Kh1lBNC97R2SsjH-10" value="" style="ellipse;whiteSpace=wrap;html=1;aspect=fixed;" vertex="1" parent="1">
          <mxGeometry x="307" y="270" width="150" height="150" as="geometry" />
        </mxCell>
        <mxCell id="hnz49Kh1lBNC97R2SsjH-11" value="position" style="rounded=0;whiteSpace=wrap;html=1;" vertex="1" parent="1">
          <mxGeometry x="347" y="290" width="72" height="40" as="geometry" />
        </mxCell>
        <mxCell id="hnz49Kh1lBNC97R2SsjH-12" value="radius" style="rounded=0;whiteSpace=wrap;html=1;" vertex="1" parent="1">
          <mxGeometry x="346" y="350" width="72" height="40" as="geometry" />
        </mxCell>
        <mxCell id="hnz49Kh1lBNC97R2SsjH-13" value="15" style="ellipse;whiteSpace=wrap;html=1;aspect=fixed;" vertex="1" parent="1">
          <mxGeometry x="600" y="370" width="80" height="80" as="geometry" />
        </mxCell>
        <mxCell id="hnz49Kh1lBNC97R2SsjH-14" value="" style="endArrow=classic;html=1;" edge="1" parent="1" target="hnz49Kh1lBNC97R2SsjH-8">
          <mxGeometry width="50" height="50" relative="1" as="geometry">
            <mxPoint x="419" y="76" as="sourcePoint" />
            <mxPoint x="469" y="26" as="targetPoint" />
          </mxGeometry>
        </mxCell>
        <mxCell id="hnz49Kh1lBNC97R2SsjH-16" value="" style="endArrow=classic;html=1;" edge="1" parent="1" target="hnz49Kh1lBNC97R2SsjH-5">
          <mxGeometry width="50" height="50" relative="1" as="geometry">
            <mxPoint x="190" y="200" as="sourcePoint" />
            <mxPoint x="240" y="150" as="targetPoint" />
          </mxGeometry>
        </mxCell>
        <mxCell id="hnz49Kh1lBNC97R2SsjH-17" value="" style="endArrow=classic;html=1;" edge="1" parent="1">
          <mxGeometry width="50" height="50" relative="1" as="geometry">
            <mxPoint x="418" y="129.1" as="sourcePoint" />
            <mxPoint x="599" y="160" as="targetPoint" />
          </mxGeometry>
        </mxCell>
        <mxCell id="hnz49Kh1lBNC97R2SsjH-18" value="" style="endArrow=classic;html=1;entryX=0;entryY=0.375;entryDx=0;entryDy=0;entryPerimeter=0;" edge="1" parent="1" target="hnz49Kh1lBNC97R2SsjH-13">
          <mxGeometry width="50" height="50" relative="1" as="geometry">
            <mxPoint x="418" y="370" as="sourcePoint" />
            <mxPoint x="468" y="320" as="targetPoint" />
          </mxGeometry>
        </mxCell>
        <mxCell id="hnz49Kh1lBNC97R2SsjH-20" value="" style="endArrow=classic;html=1;entryX=0.5;entryY=1;entryDx=0;entryDy=0;" edge="1" parent="1" target="hnz49Kh1lBNC97R2SsjH-5">
          <mxGeometry width="50" height="50" relative="1" as="geometry">
            <mxPoint x="380" y="290" as="sourcePoint" />
            <mxPoint x="430" y="240" as="targetPoint" />
          </mxGeometry>
        </mxCell>
      </root>
    </mxGraphModel>
  </diagram>
</mxfile>
